<svg id="图层_1" data-name="图层 1" xmlns="http://www.w3.org/2000/svg" viewBox="0 0 218 52.82"><defs><style>.cls-1,.cls-2{fill:#fff;}.cls-1{fill-rule:evenodd;}</style></defs><title>logo1-1</title><path class="cls-1" d="M37,8.55h0l-.72,0a14.56,14.56,0,0,0-10,3.94h0a14.17,14.17,0,0,0-1.94,2.22h0a19.4,19.4,0,0,0-3.68,14,19.86,19.86,0,0,0,.41,2.2c.12.5.27,1,.43,1.47a19,19,0,0,0,1.94,4.13h0c.17.28.36.56.55.83h0a10.51,10.51,0,0,1,1.5,5.45A10.62,10.62,0,0,1,7,49.93v0a26.18,26.18,0,0,1-2.93-4.36c-.2-.37-.39-.75-.57-1.13h0A26.43,26.43,0,0,1,27.41,6.75a26.08,26.08,0,0,1,7.05,1h0Q35.77,8.07,37,8.55Z" transform="translate(-1 -6.75)"/><line class="cls-2" x1="6.04" y1="43.22" x2="6.04" y2="43.22"/><path class="cls-1" d="M37,8.55h0" transform="translate(-1 -6.75)"/><path class="cls-1" d="M53.82,33.17A26.39,26.39,0,0,1,40.76,56a19.23,19.23,0,0,0,1.81-8.16,19.61,19.61,0,0,0-.15-2.44c-.06-.47-.14-.94-.23-1.41a19.12,19.12,0,0,0-2.65-6.53,19.48,19.48,0,0,0-5.83-5.85h0l-.77-.47h0A10.63,10.63,0,1,1,46,14.36h0c.39.39.78.8,1.15,1.21h0A26.34,26.34,0,0,1,53.82,33.17Z" transform="translate(-1 -6.75)"/><path class="cls-1" d="M11,53.86h0" transform="translate(-1 -6.75)"/><path class="cls-1" d="M24,37.31c-.17-.28-.36-.56-.55-.83" transform="translate(-1 -6.75)"/><line class="cls-2" x1="6.03" y1="43.17" x2="6.03" y2="43.17"/><path class="cls-1" d="M25.58,36.32l-.15-.23" transform="translate(-1 -6.75)"/><path class="cls-1" d="M42.27,11.33l-.36-.12" transform="translate(-1 -6.75)"/><line class="cls-2" x1="6.03" y1="43.17" x2="6.03" y2="43.17"/><line class="cls-2" x1="6.04" y1="43.22" x2="6.04" y2="43.22"/><path class="cls-1" d="M11,53.86h0" transform="translate(-1 -6.75)"/><path class="cls-1" d="M39.88,52.29a10.82,10.82,0,0,0,.47-2.06" transform="translate(-1 -6.75)"/><path class="cls-1" d="M32.15,59.15c-.3.07-.6.11-.9.15" transform="translate(-1 -6.75)"/><path class="cls-1" d="M37,8.56h0" transform="translate(-1 -6.75)"/><path class="cls-1" d="M33.71,31.57c-.26-.15-.52-.3-.77-.47" transform="translate(-1 -6.75)"/><path class="cls-1" d="M46,14.36a11.93,11.93,0,0,1,1.15,1.21" transform="translate(-1 -6.75)"/><path class="cls-1" d="M40.45,45.52a19,19,0,0,1,.11,2,17.29,17.29,0,0,1-.21,2.71h0a17.59,17.59,0,0,1-.47,2.06h0a10.44,10.44,0,0,1-7.73,6.85h0q-.45.09-.9.15h0a27,27,0,0,1-3.84.28A26.31,26.31,0,0,1,11,53.86a12,12,0,0,0,4.42.83,11.87,11.87,0,0,0,5.22-1.19,12,12,0,0,0,6.78-10.81A12,12,0,0,0,26.84,39a11.68,11.68,0,0,0-1.26-2.7h0l-.15-.23a17.79,17.79,0,0,1-2.27-5.41,17.07,17.07,0,0,1-.33-1.76l-.06-.41a20.7,20.7,0,0,1-.14-2.38,18.14,18.14,0,0,1,2.95-10A13,13,0,0,1,27,14.19h0a12.87,12.87,0,0,1,14.86-3,11.87,11.87,0,0,0-3.55-.53,12,12,0,0,0-10.1,18.48h0a12,12,0,0,0,3.62,3.62h0c.26.15.52.3.77.46h0a17.08,17.08,0,0,1,4.78,4.5A16.82,16.82,0,0,1,40.2,44C40.3,44.52,40.39,45,40.45,45.52Z" transform="translate(-1 -6.75)"/><polyline class="cls-1" points="46.1 8.81 46.1 8.81 46.11 8.81 46.11 8.81"/><polygon class="cls-1" points="194.64 28.91 200.66 15.7 214.48 15.7 212.38 20.31 205.91 20.31 204.09 24.29 210.56 24.29 208.45 28.91 194.64 28.91"/><polygon class="cls-1" points="218 7.89 215.91 12.51 202.09 12.51 204.19 7.89 218 7.89"/><path class="cls-1" d="M177.87,14.49h5.94c.46,0,.91,0,1.37,0a3.36,3.36,0,0,1,3.25,3.37l-.51,11.58-4.12,6.1L183,19.26h-7.33l2.24-4.77Zm3.6,8h-7.33L168,35.66h7.35Z" transform="translate(-1 -6.75)"/><path class="cls-1" d="M171.81,18.27,165.28,32.6a4.63,4.63,0,0,1-2.13,2.4,10.65,10.65,0,0,1-4.38.66h-8.23a5.21,5.21,0,0,1-2.7-.62,2.1,2.1,0,0,1-1.12-1.67,1.79,1.79,0,0,1,.05-.59A4.24,4.24,0,0,1,147,32l6.46-14.33a4.76,4.76,0,0,1,2.12-2.39,10.31,10.31,0,0,1,4.36-.67h8.25a5.21,5.21,0,0,1,2.73.62A2.14,2.14,0,0,1,172.1,17a2.32,2.32,0,0,1,0,.63,3.55,3.55,0,0,1-.24.69Zm-8.47,2.39a2.18,2.18,0,0,0,.09-.29,1,1,0,0,0,0-.17.87.87,0,0,0-.46-.68,2.08,2.08,0,0,0-1.1-.26,2.77,2.77,0,0,0-1.44.34,2.15,2.15,0,0,0-.9,1l-4.07,9a.9.9,0,0,0-.09.58.77.77,0,0,0,.48.65,2.73,2.73,0,0,0,1.22.23,2.38,2.38,0,0,0,1.29-.33,2.31,2.31,0,0,0,.86-1Z" transform="translate(-1 -6.75)"/><polygon class="cls-1" points="123.93 25.98 139.2 12.51 130.86 12.51 132.96 7.89 149.64 7.89 149.21 11.11 134.12 24.29 143.09 24.29 140.99 28.91 122.59 28.91 123.93 25.98"/><path class="cls-1" d="M124.1,31l-.7,1.56A4.68,4.68,0,0,1,121.34,35a10.72,10.72,0,0,1-4.42.65h-7.67a5.17,5.17,0,0,1-2.69-.62,2.11,2.11,0,0,1-1.13-1.67,2,2,0,0,1,0-.64,2.89,2.89,0,0,1,.25-.69l6.5-14.33a4.62,4.62,0,0,1,2.07-2.4,10.34,10.34,0,0,1,4.4-.66h7.09a5.16,5.16,0,0,1,2.73.62A2.18,2.18,0,0,1,129.63,17a2.21,2.21,0,0,1-.06.6,3.7,3.7,0,0,1-.25.7l-.43,1h-8.18a3.18,3.18,0,0,0-1.57.34,1.92,1.92,0,0,0-.88,1l-.78,1.85-3.29,7.19a1.52,1.52,0,0,0-.09.25,1.2,1.2,0,0,0,0,.27.83.83,0,0,0,.43.63,1.8,1.8,0,0,0,1,.25Z" transform="translate(-1 -6.75)"/><polygon class="cls-1" points="84.71 28.91 90.73 15.7 104.55 15.7 102.45 20.31 95.98 20.31 94.16 24.29 100.63 24.29 98.52 28.91 84.71 28.91"/><polygon class="cls-1" points="108.08 7.89 105.98 12.51 92.16 12.51 94.26 7.89 108.08 7.89"/><path class="cls-1" d="M87.36,14.65l-2.13,4.61H79.76a3,3,0,0,0-1.69.4,1.08,1.08,0,0,0-.52,1.06c.06.65,1,1.16,3,1.54l.9.19a6.14,6.14,0,0,1,3.3,1.75,5.21,5.21,0,0,1,1.44,3.22,5.8,5.8,0,0,1-.46,2.85A6.71,6.71,0,0,1,84,32.7a10.88,10.88,0,0,1-2.24,1.51,15.92,15.92,0,0,1-2.83,1.06,14,14,0,0,1-2.25.29c-1,.07-2.25.1-3.68.1H61.87L64,31h8.39a17.92,17.92,0,0,0,2.87-.17,4.5,4.5,0,0,0,1.65-.56,3.66,3.66,0,0,0,1.22-1.19,2.2,2.2,0,0,0,.34-1.35c-.07-.73-.84-1.28-2.3-1.65l-.77-.21a8.27,8.27,0,0,1-3.54-1.74,4.34,4.34,0,0,1-1.28-2.87,5.47,5.47,0,0,1,1.73-4.79,7.71,7.71,0,0,1,5.46-1.86Z" transform="translate(-1 -6.75)"/><polygon class="cls-1" points="192.48 7.62 199.79 7.62 189.92 28.79 182.58 28.79 192.48 7.62"/><path class="cls-2" d="M77.52,55.7H72v2.87H69.87V55.7h-7.4V53.76h7.4V51.92H66.33a4.88,4.88,0,0,0-1.92.25,18.21,18.21,0,0,0-.72-2c.44-.14.77-.55,1.26-1.27a12.6,12.6,0,0,0,.93-1.64h-3V45.31h4a22,22,0,0,0,1-2.49l2.34.59c-.27.65-.55,1.27-.85,1.9h8v1.92h-9c-.57,1-1.16,2-1.74,2.81h3.37V47.87H72V50H76.1v1.88H72v1.84h5.51Z" transform="translate(-1 -6.75)"/><path class="cls-2" d="M93.32,52.34a7.1,7.1,0,0,0,4,4.56A6.85,6.85,0,0,0,96,58.55a7.78,7.78,0,0,1-3.5-3.6,9.08,9.08,0,0,1-3.44,3.8,7.22,7.22,0,0,0-1.47-1.38v1.2H85.92V55.7l-4,.72-.38-1.86.92-.12V45.38h-.72V43.61h6.48v1.77h-.6v8.26l1.15-.18.13,1.7-1.28.24v1.93a7.06,7.06,0,0,0,3.67-5H88.36v-1.8h3.07V48.22H88.66V46.41h1.8A10.74,10.74,0,0,0,88.94,44l1.59-.75a9.75,9.75,0,0,1,1.67,2.44l-1.4.73h1.92a19,19,0,0,0,1.43-3.15l2,.51c-.47.91-1,1.87-1.47,2.64h1.9v1.81H93.45v2.32h3.62v1.8Zm-9.12-7v1.75h1.72V45.38Zm0,5.14h1.72V48.75H84.2Zm1.72,3.39V52.14H84.2v2Z" transform="translate(-1 -6.75)"/><path class="cls-2" d="M115.79,56.16c0,1.12-.25,1.67-1,2a8.16,8.16,0,0,1-3.36.37,7.79,7.79,0,0,0-.73-2c1,.08,2.27.06,2.6.06s.49-.13.49-.45V45.78H103.69v2.87l1-1c.51.56,1.06,1.17,1.6,1.79.2-.92.33-1.9.45-2.9l1.77.18a34.27,34.27,0,0,1-.84,4.37c.59.74,1.11,1.46,1.49,2l-1.2,1.38c-.24-.4-.57-.88-1-1.41a11.27,11.27,0,0,1-2.12,3.57,8,8,0,0,0-1.17-.84v2.78h-2V43.89h14.09Zm-12.1-1a10.54,10.54,0,0,0,2-3.77c-.68-.84-1.39-1.7-2-2.44Zm8.78-.3a16.48,16.48,0,0,0-1-1.73,11.63,11.63,0,0,1-2.21,3.62,11.81,11.81,0,0,0-1.53-1,10.24,10.24,0,0,0,2.54-4.38,31,31,0,0,0-2.09-2.54l1.2-1.08c.47.48.95,1,1.42,1.58.18-.88.33-1.8.43-2.75l1.76.17a30.55,30.55,0,0,1-.82,4.35,17.12,17.12,0,0,1,1.55,2.56Z" transform="translate(-1 -6.75)"/><path class="cls-2" d="M132.51,51.31a10.29,10.29,0,0,1-2,3.23,41.05,41.05,0,0,1,4.9,2.39l-1.62,1.69a37.8,37.8,0,0,0-5-2.61A17.72,17.72,0,0,1,122,58.57a9.39,9.39,0,0,0-1.18-1.84,17.4,17.4,0,0,0,5.79-1.65c-1.35-.55-2.72-1.07-4-1.47l0,0c.5-.65,1-1.44,1.56-2.27h-3.46V49.44h4.52A25.1,25.1,0,0,0,126.43,47l2.22.43c-.27.67-.58,1.34-.93,2h7.76v1.87Zm-9.4-2.81h-2V44.78h5.81c-.2-.47-.44-1-.64-1.37l2.09-.49c.32.57.67,1.29.92,1.86h5.89V48.5H133V46.61h-9.93Zm3.59,2.81c-.32.51-.62,1-.92,1.43l2.74,1a7.49,7.49,0,0,0,1.68-2.43Z" transform="translate(-1 -6.75)"/><path class="cls-2" d="M148.51,50.74v1.92h4v1.73h-4v2h6.11v1.79h-14.2V56.4h6v-2h-3.81V52.66h3.81V50.74h-4V49.62c-.52.3-1,.58-1.61.85a6.8,6.8,0,0,0-1.35-1.65,17.28,17.28,0,0,0,7.7-6l1.77.82-.3.45a20.51,20.51,0,0,0,7,4.76,5.66,5.66,0,0,0-1.33,1.7l-1.61-.88v1.07Zm3-1.76a22,22,0,0,1-4.09-3.47,21.2,21.2,0,0,1-4,3.47Z" transform="translate(-1 -6.75)"/><path class="cls-2" d="M167.48,54.19c-1,2-2.91,3.46-6.58,4.35a5.28,5.28,0,0,0-1.11-1.71c2.71-.58,4.31-1.45,5.26-2.64h-5.39V52.52h6.28a19.39,19.39,0,0,0,.62-5.41h2.1a25.11,25.11,0,0,1-.58,5.41h6v1.67Zm-5.68-5.84h-2V44.54h6.11a8.21,8.21,0,0,0-.57-1.15l2-.62a13.71,13.71,0,0,1,.95,1.77h5.63v3.81h-2.09v-2h-10Zm0,.83a10.3,10.3,0,0,1,2.52,1.66l-1.18,1.47a11.1,11.1,0,0,0-2.47-1.79Zm2.94.71A10.46,10.46,0,0,0,162.4,48l1.15-1.28A9,9,0,0,1,166,48.47Zm3.49,4.64a27.66,27.66,0,0,1,5.88,2.37l-1.22,1.59A22.66,22.66,0,0,0,167.34,56Z" transform="translate(-1 -6.75)"/><path class="cls-2" d="M182.69,54.88l-4.13,1-.31-1.54c1.11-.2,2.68-.55,4.29-.9Zm4-6.56a19.25,19.25,0,0,1-1.66,1.3,13.39,13.39,0,0,0-1.13-1.6c-.07,1-.15,1.9-.24,2.65H185s0,.5,0,.72c-.2,4.14-.41,5.78-.91,6.34a1.72,1.72,0,0,1-1.27.64,16.34,16.34,0,0,1-2,0,3.58,3.58,0,0,0-.48-1.59c.73.07,1.43.08,1.73.08a.68.68,0,0,0,.59-.2c.3-.33.5-1.53.65-4.46h-4.31c.2-1.5.37-4,.43-5.86l1.69.1c-.07,1.32-.18,2.89-.3,4.23H182c.19-1.49.34-3.54.44-5.45h-3.78V43.57h5.51c-.06,1.37-.16,3-.28,4.45a13.25,13.25,0,0,0,4.84-5.25l1.72.6c-.13.27-.28.54-.43.81a16.9,16.9,0,0,0,4.24,3.43,10.06,10.06,0,0,0-.9,2c-.5-.34-1-.71-1.52-1.14v1.29H186.7Zm7.14,2.77c-.6,1.68-1.33,3.64-2,5.07h2v1.67h-8.65V56.16h5A31.69,31.69,0,0,0,192,50.7Zm-7.4,4.14a27.05,27.05,0,0,0-.86-3.94l1.5-.4a26.91,26.91,0,0,1,1,3.89Zm4.95-7.16A25.2,25.2,0,0,1,189,45.69,17.58,17.58,0,0,1,187,48.07Zm-2.32,6.69c-.09-1.07-.37-2.7-.62-3.94l1.5-.22a31.77,31.77,0,0,1,.7,3.93Z" transform="translate(-1 -6.75)"/><path class="cls-2" d="M213,56.37v1.75h-14.8V56.37h6.32V54.93h-4.86v-1.7h4.86V52h2v1.27h5.11v1.7h-5.11v1.44ZM200.14,47.5h-1.86V44.31h6.42a8.53,8.53,0,0,0-.45-1l1.93-.57a9.37,9.37,0,0,1,.75,1.57h5.95V47.5h-1.77v1.33h-2a21.85,21.85,0,0,1,2.79,2.61l-1.57,1.07a10,10,0,0,0-.89-1c-7.46.6-8.36.66-9,.93a17.21,17.21,0,0,0-.57-1.72,2.83,2.83,0,0,0,1.19-.6,16.19,16.19,0,0,0,1.53-1.24h-2.45Zm.08-1.39v1h10.64v-1Zm7.85,4c-.3-.27-.6-.5-.87-.73l.82-.56h-2.89a21.51,21.51,0,0,1-1.94,1.61Z" transform="translate(-1 -6.75)"/></svg>