<?xml version="1.0" encoding="utf-8"?>
<!-- Generator: Adobe Illustrator 22.1.0, SVG Export Plug-In . SVG Version: 6.00 Build 0)  -->
<svg version="1.1" id="图层_1" xmlns="http://www.w3.org/2000/svg" xmlns:xlink="http://www.w3.org/1999/xlink" x="0px" y="0px"
	 viewBox="0 0 424.4 105.6" style="enable-background:new 0 0 424.4 105.6;" xml:space="preserve">
<style type="text/css">
	.st0{fill-rule:evenodd;clip-rule:evenodd;fill:#FFFFFF;}
	.st1{fill:#FFFFFF;}
</style>
<g>
	<g>
		<g>
			<g>
				<path class="st0" d="M92.2,9.7C92.2,9.8,92.2,9.8,92.2,9.7L92.2,9.7c-0.5,0-0.9,0-1.3,0c-6.9,0-13.1,2.7-17.8,7c0,0,0,0,0,0
					c-1.3,1.2-2.4,2.5-3.5,4c0,0,0,0,0,0c-4.3,5.7-6.8,12.9-6.8,20.6c0,1.5,0.1,2.9,0.3,4.3c0.2,1.3,0.4,2.6,0.7,3.9
					c0.2,0.9,0.5,1.8,0.8,2.6c0.9,2.6,2,5.1,3.5,7.4c0,0,0,0,0,0c0,0,0,0,0,0c0,0,0,0,0,0c0,0,0,0,0,0c0.3,0.5,0.6,1,1,1.5
					c0,0,0,0,0,0c0,0,0,0,0,0c0.8,1.4,1.5,2.8,1.9,4.4c0.5,1.7,0.8,3.5,0.8,5.3c0,7.1-3.9,13.3-9.7,16.5c-2.7,1.5-5.9,2.4-9.2,2.4
					c-5.5,0-10.5-2.4-14-6.2c0,0,0,0.1,0,0.1c-2-2.4-3.7-5-5.2-7.8c-0.4-0.7-0.7-1.3-1-2v0c-2.9-6.1-4.5-13-4.5-20.2
					c0-26,21.1-47.1,47.1-47.1c4.4,0,8.6,0.6,12.6,1.7h0C89.2,8.7,90.8,9.2,92.2,9.7z"/>
				<line class="st0" x1="38.8" y1="83.6" x2="38.8" y2="83.6"/>
				<path class="st0" d="M92.2,9.7C92.3,9.8,92.3,9.8,92.2,9.7L92.2,9.7"/>
				<path class="st0" d="M122.2,53.6c0,17.3-9.4,32.5-23.3,40.6c2.1-4.4,3.2-9.4,3.2-14.6c0-1.5-0.1-2.9-0.3-4.3
					c-0.1-0.8-0.2-1.7-0.4-2.5c-0.9-4.2-2.5-8.2-4.7-11.7c-1.1-1.8-2.4-3.4-3.8-5c-1.9-2.1-4.1-3.9-6.5-5.5c0,0,0,0,0,0
					c-0.4-0.3-0.9-0.6-1.4-0.8c0,0,0,0,0,0c-5.1-3.4-8.4-9.2-8.4-15.7c0-10.5,8.5-19,19-19c4.9,0,9.3,1.8,12.7,4.8l0,0
					c0.7,0.7,1.4,1.4,2.1,2.2c0,0,0,0,0,0C117.7,30.6,122.2,41.6,122.2,53.6z"/>
				<line class="st0" x1="45.8" y1="90.5" x2="45.8" y2="90.5"/>
				<path class="st0" d="M69,61c-0.3-0.5-0.6-1-1-1.5"/>
				<line class="st0" x1="38.8" y1="83.5" x2="38.8" y2="83.5"/>
				<path class="st0" d="M71.9,59.3c-0.1-0.1-0.2-0.3-0.3-0.4"/>
				<path class="st0" d="M101.6,14.7c-0.2-0.1-0.4-0.1-0.6-0.2"/>
				<line class="st0" x1="38.8" y1="83.5" x2="38.8" y2="83.5"/>
				<line class="st0" x1="38.8" y1="83.6" x2="38.8" y2="83.6"/>
				<line class="st0" x1="45.8" y1="90.5" x2="45.8" y2="90.5"/>
				<path class="st0" d="M97.4,87.7c0.4-1.2,0.7-2.4,0.8-3.7"/>
				<path class="st0" d="M83.6,100c-0.5,0.1-1.1,0.2-1.6,0.3"/>
				<path class="st0" d="M92.3,9.8L92.3,9.8C92.2,9.8,92.2,9.8,92.3,9.8"/>
				<path class="st0" d="M86.4,50.8c-0.5-0.3-0.9-0.5-1.4-0.8"/>
				<path class="st0" d="M108.2,20.1c0.7,0.7,1.4,1.4,2.1,2.2"/>
			</g>
		</g>
		<path class="st0" d="M98.4,75.7c0.1,1.2,0.2,2.4,0.2,3.6c0,1.6-0.1,3.3-0.4,4.8c0,0,0,0,0,0c0,0,0,0,0,0c-0.2,1.3-0.5,2.5-0.8,3.7
			c0,0,0,0,0,0C95.3,93.9,90,98.6,83.6,100c0,0,0,0,0,0c-0.5,0.1-1.1,0.2-1.6,0.3h0c-2.2,0.3-4.5,0.5-6.9,0.5
			c-11.1,0-21.2-3.8-29.3-10.2c2.4,1,5.1,1.5,7.9,1.5c3.3,0,6.5-0.8,9.3-2.1c7.2-3.5,12.1-10.8,12.1-19.3c0-1.1-0.1-2.1-0.2-3.2
			c-0.2-1.2-0.4-2.3-0.8-3.4c-0.5-1.7-1.3-3.3-2.2-4.8c0,0,0,0,0,0c-0.1-0.1-0.2-0.3-0.3-0.4c-1.8-2.9-3.2-6.2-4-9.6
			c-0.2-1-0.4-2.1-0.6-3.1c0-0.2-0.1-0.5-0.1-0.7c-0.2-1.4-0.3-2.8-0.3-4.3c0-6.6,1.9-12.8,5.2-17.8c0.8-1.2,1.6-2.4,2.6-3.4
			c0,0,0,0,0,0c0,0,0,0,0,0c4.2-4.6,10.2-7.4,16.9-7.4c3.4,0,6.7,0.8,9.6,2.1c-2-0.6-4.1-0.9-6.3-0.9c-11.8,0-21.4,9.6-21.4,21.4
			c0,4.3,1.2,8.2,3.4,11.6v0c1.7,2.6,3.9,4.8,6.5,6.5c0,0,0,0,0,0c0.5,0.3,0.9,0.5,1.4,0.8c0,0,0,0,0,0c3.3,2.1,6.2,4.8,8.5,8
			c2.4,3.3,4.1,7.1,4.9,11.2C98.1,73.9,98.3,74.8,98.4,75.7z"/>
		<polyline class="st0" points="110.2,22.2 110.2,22.2 110.2,22.3 110.2,22.3 		"/>
	</g>
	<path class="st0" d="M187.7,20.2h-42.8v6.1h3.9c2.9,0,4.3,1.5,4.3,4.4v7.8h-8.5v6.2h7.6c-1.2,4.3-3.3,7.7-6.4,10.4v8.8
		c7.1-3.2,11.9-9.5,14.4-19.2H173v18.7h7.6V44.7h7.8v-6.2h-7.8V26.3h7.2V20.2L187.7,20.2z M160.6,38.5V26.3h8.1
		c2.8,0,4.3,1.5,4.3,4.4v7.8H160.6L160.6,38.5z M251.1,40.5c1.6,0,2.3,0.5,2.3,1.5v0.7h-1.1h-6.6v-2.2H251.1L251.1,40.5z
		 M245.7,35.5v-2h5.4c1.6,0,2.3,0.5,2.3,1.4v0.6H245.7L245.7,35.5z M253.9,49.8l2.1,13.3h4.9L259.2,52c-0.2-1.4-1.2-2.1-2.8-2.1
		H253.9L253.9,49.8z M237.6,63.3h5.2l1.5-13.4h-5L237.6,63.3L237.6,63.3z M236.1,26.2h4.4c-0.3,1.4-1.4,2.8-3.3,4.3V37l1.8-0.9v6.6
		v2.6v2.8h3.3c2.5,0,3.8,1.2,3.8,3.6v12.2l7.1,0V48.1h2.3h4.4l0-4.5v-9c0-4.4-1.8-6.6-5.4-6.6h-7.6l0.5-1.9h13.4v-5.7h-24.2
		c-5,0.1-7.5,2.4-7.5,6.9l0,36.4l3.1-0.1c2.7,0,4-1.6,4-4.8V26.2L236.1,26.2z M224.6,64l-7.4,0l3.1-14.8c0.9-5.3-0.1-8.6-3-9.8
		l0-7.8c8.4,1.8,11.6,8.7,9.6,20.5L224.6,64L224.6,64z M217.5,24.8c0-1.1,0.4-2.1,1.3-3c0.9-0.9,1.9-1.3,3-1.3c1.1,0,2.1,0.4,3,1.3
		c0.9,0.8,1.3,1.8,1.3,3c0,1.2-0.4,2.2-1.3,3.1c-0.9,0.8-1.9,1.2-3,1.2c-1.2,0-2.2-0.4-3-1.2C218,27,217.5,26,217.5,24.8L217.5,24.8
		z M332.5,59.5V27.1c0-4.4-2-6.5-6-6.4l-29.6-0.1c-4.4,0-6.6,2.2-6.6,6.5v36.8h7.5v-6h5.5l1.8-4.7l0.6,1.5c0.7,2.3,2.4,3.4,5.1,3.4
		h0.2h1.8h0.1c2.7,0,4.4-0.9,5.2-2.7l0.1-0.6l1.3,3.1h5.5v0.2l0,5.8h3C330.9,63.9,332.4,62.5,332.5,59.5L332.5,59.5z M315.1,45.1
		l-1.9,6c-0.2,0.5-0.6,0.8-1.2,1c-0.6-0.1-0.9-0.4-1.1-0.8l-3-7.6l3.1-11.2L315.1,45.1L315.1,45.1z M302.1,44.5l-4.4,10.7V31.9
		L302.1,44.5L302.1,44.5z M302.1,28.5h-4.4v-1.8h24.1c2.1,0,3.2,0.6,3.2,1.8h-4.7l-2.5,7.8l-2.5-7.8h-3.1h-2.3h-3.2l-2,6.8
		L302.1,28.5L302.1,28.5z M324.9,55.5l-4.1-9.9l4.2-14.3L324.9,55.5L324.9,55.5z M370.6,28.7h25.1c1.9,0,2.8,0.5,2.8,1.4v1.5h7.6
		l0.1-4.7c-0.3-3-2.1-4.4-5.4-4.4h-12.4V20h-8v2.5h-11.8c-3.7,0-5.5,1.5-5.5,4.5v4.5h7.6V28.7L370.6,28.7z M395.5,36.1h-22.2V33
		h-7.7v3.1h-3.3v6h3.5l0.1,5.8c3.5,4.2,6.9,7.1,10.2,8.8c-3.1,1-7.5,1.3-13.2,0.8l-0.1,6.2c10.5,0.5,17.8-0.6,21.8-3.1
		c4.6,2.6,11.6,3.7,21,3.3v-6.6c-4.3,0.6-8.4,0.3-12.4-0.7c3.3-1.6,6.6-4.6,9.9-8.9v-5.7h3.2v-6h-3.2V33h-7.7V36.1L395.5,36.1z
		 M395.3,42.1v3.5c-2.5,2.7-4.8,4.6-7.1,5.7c-2.2,1.1-4.6,1.1-7,0c-2.4-1.1-4.9-2.9-7.4-5.5v-3.7H395.3z"/>
	<g>
		<path class="st1" d="M156.3,76.5h-8.5v-3.3h10.7V70h-10.7c-0.9,0-1.7,0.3-2.3,1c-0.6,0.7-0.9,1.4-0.9,2.3v3.3c0,0.3,0,0.6,0.1,0.9
			c0.2,0.7,0.5,1.3,1.1,1.7c0.6,0.4,1.2,0.6,2,0.6h8.5V83h-11.5v3.2h11.5c1,0,1.8-0.3,2.4-1c0.6-0.6,0.8-1.3,0.8-2.3v-3.3
			c0-0.9-0.3-1.7-0.9-2.3C158,76.8,157.2,76.5,156.3,76.5z"/>
		<polygon class="st1" points="165.9,73.2 169.2,73.2 169.2,73.2 178.8,73.2 178.8,70 165.9,70 		"/>
		<polygon class="st1" points="169.2,76.5 165.9,76.5 165.9,86.2 178.8,86.2 178.8,83 169.2,83 169.2,79.7 178.8,79.7 178.8,76.5 
			169.2,76.5 		"/>
		<path class="st1" d="M186,71c-0.6,0.7-0.9,1.4-0.9,2.3V83c0,0.4,0,0.7,0.1,1.1c0.3,1.4,1.4,2.2,3.1,2.2h12.3V83h-12.3v-9.8h12.3
			V70h-12.3C187.4,70,186.6,70.3,186,71z"/>
		<polygon class="st1" points="206.8,73.2 217.5,73.2 206.8,84.6 206.8,86.2 222.9,86.2 222.9,83 212.2,83 222.9,71.6 222.9,70 
			206.8,70 		"/>
		<path class="st1" d="M241.7,70H232c-0.9,0-1.7,0.3-2.3,1c-0.6,0.7-0.9,1.4-0.9,2.3V83c0,0.4,0,0.7,0.1,1.1
			c0.4,1.4,1.4,2.2,3.1,2.2h9.7c2.1,0,3.2-1.1,3.2-3.2v-9.8c0-0.9-0.3-1.6-0.9-2.3C243.3,70.3,242.6,70,241.7,70z M241.7,83H232
			v-9.8h9.7V83z"/>
		<rect x="251.1" y="76.5" class="st1" width="3.2" height="9.7"/>
		<polygon class="st1" points="264,80.5 253.1,70 251.1,70 251.1,73.2 251.8,73.2 254.3,75.7 254.3,75.7 265.2,86.2 267.2,86.2 
			267.2,70 264,70 		"/>
		<polygon class="st1" points="273.9,73.2 277.2,73.2 277.2,73.2 286.8,73.2 286.8,70 273.9,70 		"/>
		<polygon class="st1" points="277.2,76.5 273.9,76.5 273.9,86.2 286.8,86.2 286.8,83 277.2,83 277.2,79.7 286.8,79.7 286.8,76.5 
			277.2,76.5 		"/>
		<path class="st1" d="M308.3,79.7h6.4V83h-9.7v-9.8h12.3V70h-12.3c-0.9,0-1.7,0.3-2.3,1c-0.6,0.7-0.9,1.4-0.9,2.3V83
			c0,0.4,0,0.7,0.1,1.1c0.4,1.4,1.4,2.2,3.1,2.2h12.9v-9.7h-9.6V79.7z"/>
		<path class="st1" d="M336.5,79.7c2.1,0,3.2-1.1,3.2-3.2v-3.3c0-0.9-0.3-1.6-0.9-2.3c-0.6-0.6-1.4-1-2.3-1h-12.3v3.2h3.2v0h9.1v3.3
			h-9.1v0h-3.2v9.7h3.2v-6.5h0.5l7.6,6.5h4.8l-7.7-6.5H336.5z"/>
		<path class="st1" d="M358.9,70h-9.7c-0.9,0-1.7,0.3-2.3,1c-0.6,0.7-0.9,1.4-0.9,2.3V83c0,0.4,0,0.7,0.1,1.1
			c0.4,1.4,1.4,2.2,3.1,2.2h9.7c2.1,0,3.2-1.1,3.2-3.2v-9.8c0-0.9-0.3-1.6-0.9-2.3C360.6,70.3,359.8,70,358.9,70z M358.9,83h-9.7
			v-9.8h9.7V83z"/>
		<path class="st1" d="M381.2,83h-9.6V70h-3.2v13c0,0.9,0.3,1.7,0.9,2.3c0.6,0.6,1.4,0.9,2.3,0.9h9.6c1,0,1.8-0.3,2.4-0.9
			c0.6-0.6,0.9-1.4,0.9-2.3V70h-3.2V83z"/>
		<path class="st1" d="M405.5,70.9c-0.6-0.6-1.4-1-2.3-1h-12.6v3.2h3.2v0h9.4v3.3h-9.4v0h-3.2v9.7h3.2v-6.5h9.4
			c2.1,0,3.2-1.1,3.2-3.2v-3.3C406.4,72.3,406.1,71.6,405.5,70.9z"/>
	</g>
</g>
</svg>
