<?xml version="1.0" encoding="utf-8"?>
<!-- Generator: Adobe Illustrator 22.1.0, SVG Export Plug-In . SVG Version: 6.00 Build 0)  -->
<svg version="1.1" id="图层_1" xmlns="http://www.w3.org/2000/svg" xmlns:xlink="http://www.w3.org/1999/xlink" x="0px" y="0px"
	 viewBox="0 0 183 48" style="enable-background:new 0 0 183 48;" xml:space="preserve">
<style type="text/css">
	.st0{fill-rule:evenodd;clip-rule:evenodd;fill:#FFFFFF;}
</style>
<g>
	<g>
		<g>
			<g>
				<path class="st0" d="M32.3,5.4C32.3,5.4,32.3,5.4,32.3,5.4L32.3,5.4c-0.2,0-0.4,0-0.6,0c-3.1,0-6,1.2-8.1,3.2c0,0,0,0,0,0
					C23,9.1,22.4,9.7,22,10.4c0,0,0,0,0,0c-2,2.6-3.1,5.9-3.1,9.4c0,0.7,0,1.3,0.1,2c0.1,0.6,0.2,1.2,0.3,1.8
					c0.1,0.4,0.2,0.8,0.3,1.2c0.4,1.2,0.9,2.3,1.6,3.4c0,0,0,0,0,0c0,0,0,0,0,0c0,0,0,0,0,0c0,0,0,0,0,0c0.1,0.2,0.3,0.5,0.4,0.7
					c0,0,0,0,0,0c0,0,0,0,0,0c0.4,0.6,0.7,1.3,0.9,2c0.2,0.8,0.3,1.6,0.3,2.4c0,3.2-1.8,6.1-4.4,7.5c-1.2,0.7-2.7,1.1-4.2,1.1
					c-2.5,0-4.8-1.1-6.4-2.8c0,0,0,0,0,0C7,38,6.2,36.8,5.5,35.5c-0.2-0.3-0.3-0.6-0.5-0.9v0C3.7,31.8,3,28.7,3,25.4
					C3,13.5,12.6,3.9,24.5,3.9c2,0,3.9,0.3,5.7,0.8h0C30.9,4.9,31.6,5.1,32.3,5.4z"/>
				<line class="st0" x1="7.9" y1="39.1" x2="7.9" y2="39.1"/>
				<path class="st0" d="M32.3,5.4C32.3,5.4,32.3,5.4,32.3,5.4L32.3,5.4"/>
				<path class="st0" d="M45.9,25.4c0,7.9-4.3,14.8-10.6,18.5c0.9-2,1.5-4.3,1.5-6.6c0-0.7,0-1.3-0.1-2c0-0.4-0.1-0.8-0.2-1.1
					c-0.4-1.9-1.1-3.7-2.1-5.3c-0.5-0.8-1.1-1.6-1.8-2.3c-0.9-0.9-1.9-1.8-3-2.5c0,0,0,0,0,0c-0.2-0.1-0.4-0.3-0.6-0.4c0,0,0,0,0,0
					c-2.3-1.5-3.8-4.2-3.8-7.2c0-4.8,3.9-8.6,8.6-8.6c2.2,0,4.2,0.8,5.8,2.2l0,0c0.3,0.3,0.6,0.6,0.9,1c0,0,0,0,0,0
					C43.9,14.9,45.9,19.9,45.9,25.4z"/>
				<line class="st0" x1="11.1" y1="42.2" x2="11.1" y2="42.2"/>
				<path class="st0" d="M21.7,28.8c-0.1-0.2-0.3-0.5-0.4-0.7"/>
				<line class="st0" x1="7.9" y1="39" x2="7.9" y2="39"/>
				<path class="st0" d="M23,28c0-0.1-0.1-0.1-0.1-0.2"/>
				<path class="st0" d="M36.5,7.7c-0.1,0-0.2-0.1-0.3-0.1"/>
				<line class="st0" x1="7.9" y1="39" x2="7.9" y2="39"/>
				<line class="st0" x1="7.9" y1="39.1" x2="7.9" y2="39.1"/>
				<line class="st0" x1="11.1" y1="42.2" x2="11.1" y2="42.2"/>
				<path class="st0" d="M34.6,40.9c0.2-0.5,0.3-1.1,0.4-1.7"/>
				<path class="st0" d="M28.3,46.5c-0.2,0-0.5,0.1-0.7,0.1"/>
				<path class="st0" d="M32.3,5.4L32.3,5.4C32.3,5.4,32.3,5.4,32.3,5.4"/>
				<path class="st0" d="M29.6,24.1c-0.2-0.1-0.4-0.2-0.6-0.4"/>
				<path class="st0" d="M39.5,10.1c0.3,0.3,0.6,0.6,0.9,1"/>
			</g>
		</g>
		<path class="st0" d="M35.1,35.4c0.1,0.5,0.1,1.1,0.1,1.6c0,0.7-0.1,1.5-0.2,2.2c0,0,0,0,0,0c0,0,0,0,0,0c-0.1,0.6-0.2,1.1-0.4,1.7
			c0,0,0,0,0,0c-1,2.8-3.3,5-6.3,5.6c0,0,0,0,0,0c-0.2,0-0.5,0.1-0.7,0.1h0c-1,0.1-2.1,0.2-3.1,0.2c-5,0-9.7-1.7-13.3-4.6
			c1.1,0.4,2.3,0.7,3.6,0.7c1.5,0,3-0.3,4.2-1c3.3-1.6,5.5-4.9,5.5-8.8c0-0.5,0-1-0.1-1.4c-0.1-0.5-0.2-1-0.4-1.5
			c-0.2-0.8-0.6-1.5-1-2.2c0,0,0,0,0,0c0-0.1-0.1-0.1-0.1-0.2C22,26.4,21.4,25,21,23.4c-0.1-0.5-0.2-0.9-0.3-1.4c0-0.1,0-0.2,0-0.3
			c-0.1-0.6-0.1-1.3-0.1-1.9c0-3,0.9-5.8,2.4-8.1c0.3-0.6,0.7-1.1,1.2-1.6c0,0,0,0,0,0c0,0,0,0,0,0c1.9-2.1,4.7-3.4,7.7-3.4
			c1.6,0,3,0.3,4.4,1c-0.9-0.3-1.9-0.4-2.9-0.4c-5.4,0-9.8,4.4-9.8,9.8c0,1.9,0.6,3.7,1.5,5.3v0c0.8,1.2,1.8,2.2,2.9,2.9
			c0,0,0,0,0,0c0.2,0.1,0.4,0.2,0.6,0.4c0,0,0,0,0,0c1.5,1,2.8,2.2,3.9,3.7c1.1,1.5,1.9,3.2,2.2,5.1C34.9,34.6,35,35,35.1,35.4z"/>
		<polyline class="st0" points="40.5,11.1 40.5,11.1 40.5,11.1 40.5,11.1 		"/>
	</g>
	<g>
		<polygon class="st0" points="162.7,34 167.6,23.3 178.8,23.3 177.1,27 171.9,27 170.4,30.3 175.6,30.3 173.9,34 		"/>
		<polygon class="st0" points="181.7,16.9 180,20.7 168.7,20.7 170.5,16.9 		"/>
		<path class="st0" d="M148.3,16.8h4.8c0.4,0,0.7,0,1.1,0c1.3,0.1,2.7,1.1,2.6,2.7l-0.4,9.4l-3.3,5l-0.7-13.2h-6L148.3,16.8
			L148.3,16.8z M151.2,23.3h-6l-5,10.7h6L151.2,23.3z"/>
		<path class="st0" d="M143.3,19.9L138,31.5c-0.4,0.9-1,1.6-1.7,1.9c-0.7,0.4-1.9,0.5-3.6,0.5H126c-0.9,0-1.6-0.2-2.2-0.5
			c-0.6-0.3-0.9-0.8-0.9-1.4c0-0.1,0-0.3,0-0.5c0-0.2,0.1-0.4,0.2-0.6l5.3-11.6c0.4-0.9,1-1.6,1.7-1.9c0.7-0.4,1.9-0.5,3.5-0.5h6.7
			c0.9,0,1.7,0.2,2.2,0.5c0.6,0.3,0.9,0.8,0.9,1.4c0,0.2,0,0.3,0,0.5C143.5,19.5,143.4,19.7,143.3,19.9L143.3,19.9z M136.4,21.8
			c0-0.1,0.1-0.2,0.1-0.2c0-0.1,0-0.1,0-0.1c0-0.2-0.1-0.4-0.4-0.6c-0.2-0.1-0.5-0.2-0.9-0.2c-0.5,0-0.9,0.1-1.2,0.3
			c-0.3,0.2-0.6,0.5-0.7,0.8l-3.3,7.3c0,0.1-0.1,0.1-0.1,0.2c0,0.1,0,0.2,0,0.3c0,0.2,0.2,0.4,0.4,0.5c0.2,0.1,0.6,0.2,1,0.2
			c0.4,0,0.8-0.1,1.1-0.3c0.3-0.2,0.5-0.4,0.7-0.8L136.4,21.8z"/>
		<polygon class="st0" points="105.2,31.6 117.6,20.7 110.9,20.7 112.6,16.9 126.1,16.9 125.8,19.6 113.5,30.3 120.8,30.3 119.1,34 
			104.1,34 		"/>
		<path class="st0" d="M104.6,30.3l-0.6,1.3c-0.4,1-1,1.6-1.7,2c-0.7,0.4-1.9,0.5-3.6,0.5h-6.2c-0.9,0-1.6-0.2-2.2-0.5
			c-0.6-0.3-0.9-0.8-0.9-1.4c0-0.2,0-0.3,0-0.5c0-0.2,0.1-0.4,0.2-0.6l5.3-11.6c0.4-0.9,1-1.6,1.7-2c0.7-0.4,1.9-0.5,3.6-0.5h5.8
			c0.9,0,1.7,0.2,2.2,0.5c0.5,0.3,0.9,0.8,0.9,1.4c0,0.1,0,0.3,0,0.5c0,0.2-0.1,0.4-0.2,0.6l-0.4,0.8h-6.6c-0.5,0-0.9,0.1-1.3,0.3
			c-0.3,0.2-0.6,0.5-0.7,0.8l-0.6,1.5l-2.7,5.8c0,0.1-0.1,0.1-0.1,0.2c0,0.1,0,0.1,0,0.2c0,0.2,0.1,0.4,0.3,0.5
			c0.2,0.1,0.5,0.2,0.8,0.2H104.6z"/>
		<polygon class="st0" points="73.4,34 78.3,23.3 89.5,23.3 87.8,27 82.5,27 81,30.3 86.3,30.3 84.6,34 		"/>
		<polygon class="st0" points="92.3,16.9 90.6,20.7 79.4,20.7 81.1,16.9 		"/>
		<path class="st0" d="M74.7,16.9L73,20.7h-4.4c-0.6,0-1,0.1-1.4,0.3c-0.3,0.2-0.5,0.5-0.4,0.9c0,0.5,0.9,0.9,2.4,1.3
			c0.3,0.1,0.6,0.1,0.7,0.2c1.1,0.2,2,0.7,2.7,1.4c0.7,0.7,1.1,1.6,1.2,2.6c0.1,0.8-0.1,1.5-0.4,2.3c-0.3,0.8-0.8,1.4-1.4,2
			c-0.6,0.5-1.2,0.9-1.8,1.2c-0.6,0.3-1.4,0.6-2.3,0.9c-0.4,0.1-1,0.2-1.8,0.2C65.2,34,64.2,34,63,34h-9l1.7-3.8h6.8
			c1,0,1.8,0,2.3-0.1c0.6-0.1,1-0.2,1.3-0.5c0.4-0.3,0.8-0.6,1-1c0.2-0.4,0.3-0.7,0.3-1.1c-0.1-0.6-0.7-1-1.9-1.3
			c-0.3-0.1-0.5-0.1-0.6-0.2c-1.3-0.4-2.3-0.8-2.9-1.4c-0.6-0.6-0.9-1.4-1-2.3c-0.1-1.6,0.3-2.9,1.4-3.9c1.1-1,2.6-1.5,4.4-1.5H74.7
			z"/>
		<polygon class="st0" points="160.9,16.7 166.9,16.7 158.9,33.9 152.9,33.9 		"/>
	</g>
</g>
</svg>
